<svg width="160" height="120" viewBox="0 0 160 120" xmlns="http://www.w3.org/2000/svg" role="img" aria-label="Silver-plated steel: a few microns of silver over a base metal that supplies all the strength">
  <circle cx="24" cy="26" r="7" fill="#B0B7BD" stroke="#161A19" stroke-width="2"/>
  <text x="24" y="29" text-anchor="middle" font-family="sans-serif" font-size="7" font-weight="bold" fill="#161A19">Ag</text>
  <circle cx="40" cy="26" r="7" fill="#B0B7BD" stroke="#161A19" stroke-width="2"/>
  <text x="40" y="29" text-anchor="middle" font-family="sans-serif" font-size="7" font-weight="bold" fill="#161A19">Ag</text>
  <circle cx="56" cy="26" r="7" fill="#B0B7BD" stroke="#161A19" stroke-width="2"/>
  <text x="56" y="29" text-anchor="middle" font-family="sans-serif" font-size="7" font-weight="bold" fill="#161A19">Ag</text>
  <circle cx="72" cy="26" r="7" fill="#B0B7BD" stroke="#161A19" stroke-width="2"/>
  <text x="72" y="29" text-anchor="middle" font-family="sans-serif" font-size="7" font-weight="bold" fill="#161A19">Ag</text>
  <circle cx="88" cy="26" r="7" fill="#B0B7BD" stroke="#161A19" stroke-width="2"/>
  <text x="88" y="29" text-anchor="middle" font-family="sans-serif" font-size="7" font-weight="bold" fill="#161A19">Ag</text>
  <circle cx="104" cy="26" r="7" fill="#B0B7BD" stroke="#161A19" stroke-width="2"/>
  <text x="104" y="29" text-anchor="middle" font-family="sans-serif" font-size="7" font-weight="bold" fill="#161A19">Ag</text>
  <circle cx="120" cy="26" r="7" fill="#B0B7BD" stroke="#161A19" stroke-width="2"/>
  <text x="120" y="29" text-anchor="middle" font-family="sans-serif" font-size="7" font-weight="bold" fill="#161A19">Ag</text>
  <circle cx="136" cy="26" r="7" fill="#B0B7BD" stroke="#161A19" stroke-width="2"/>
  <text x="136" y="29" text-anchor="middle" font-family="sans-serif" font-size="7" font-weight="bold" fill="#161A19">Ag</text>
  <circle cx="152" cy="26" r="7" fill="#B0B7BD" stroke="#161A19" stroke-width="2"/>
  <text x="152" y="29" text-anchor="middle" font-family="sans-serif" font-size="7" font-weight="bold" fill="#161A19">Ag</text>
  <line x1="38" y1="67" x2="66" y2="67" stroke="#8A8A8A" stroke-width="1.5" stroke-dasharray="3,3"/>
  <line x1="38" y1="67" x2="38" y2="95" stroke="#8A8A8A" stroke-width="1.5" stroke-dasharray="3,3"/>
  <line x1="66" y1="67" x2="94" y2="67" stroke="#8A8A8A" stroke-width="1.5" stroke-dasharray="3,3"/>
  <line x1="66" y1="67" x2="66" y2="95" stroke="#8A8A8A" stroke-width="1.5" stroke-dasharray="3,3"/>
  <line x1="94" y1="67" x2="122" y2="67" stroke="#8A8A8A" stroke-width="1.5" stroke-dasharray="3,3"/>
  <line x1="94" y1="67" x2="94" y2="95" stroke="#8A8A8A" stroke-width="1.5" stroke-dasharray="3,3"/>
  <line x1="122" y1="67" x2="122" y2="95" stroke="#8A8A8A" stroke-width="1.5" stroke-dasharray="3,3"/>
  <line x1="38" y1="95" x2="66" y2="95" stroke="#8A8A8A" stroke-width="1.5" stroke-dasharray="3,3"/>
  <line x1="66" y1="95" x2="94" y2="95" stroke="#8A8A8A" stroke-width="1.5" stroke-dasharray="3,3"/>
  <line x1="94" y1="95" x2="122" y2="95" stroke="#8A8A8A" stroke-width="1.5" stroke-dasharray="3,3"/>
  <circle cx="38" cy="67" r="13" fill="#8A6A4F" stroke="#161A19" stroke-width="2"/>
  <text x="38" y="72" text-anchor="middle" font-family="sans-serif" font-size="10" font-weight="bold" fill="#FFFFFF">Fe</text>
  <circle cx="66" cy="67" r="13" fill="#8A6A4F" stroke="#161A19" stroke-width="2"/>
  <text x="66" y="72" text-anchor="middle" font-family="sans-serif" font-size="10" font-weight="bold" fill="#FFFFFF">Fe</text>
  <circle cx="94" cy="67" r="13" fill="#8A6A4F" stroke="#161A19" stroke-width="2"/>
  <text x="94" y="72" text-anchor="middle" font-family="sans-serif" font-size="10" font-weight="bold" fill="#FFFFFF">Fe</text>
  <circle cx="122" cy="67" r="13" fill="#8A6A4F" stroke="#161A19" stroke-width="2"/>
  <text x="122" y="72" text-anchor="middle" font-family="sans-serif" font-size="10" font-weight="bold" fill="#FFFFFF">Fe</text>
  <circle cx="38" cy="95" r="13" fill="#8A6A4F" stroke="#161A19" stroke-width="2"/>
  <text x="38" y="100" text-anchor="middle" font-family="sans-serif" font-size="10" font-weight="bold" fill="#FFFFFF">Fe</text>
  <circle cx="66" cy="95" r="13" fill="#8A6A4F" stroke="#161A19" stroke-width="2"/>
  <text x="66" y="100" text-anchor="middle" font-family="sans-serif" font-size="10" font-weight="bold" fill="#FFFFFF">Fe</text>
  <circle cx="94" cy="95" r="13" fill="#8A6A4F" stroke="#161A19" stroke-width="2"/>
  <text x="94" y="100" text-anchor="middle" font-family="sans-serif" font-size="10" font-weight="bold" fill="#FFFFFF">Fe</text>
  <circle cx="122" cy="95" r="13" fill="#8A6A4F" stroke="#161A19" stroke-width="2"/>
  <text x="122" y="100" text-anchor="middle" font-family="sans-serif" font-size="10" font-weight="bold" fill="#FFFFFF">Fe</text>
  <text x="80" y="114" text-anchor="middle" font-family="sans-serif" font-size="8" font-style="italic" fill="#4A4A4A">the look of silver, at a fraction of the silver</text>
</svg>
