<svg width="160" height="120" viewBox="0 0 160 120" xmlns="http://www.w3.org/2000/svg" role="img" aria-label="Benzenesulfonic acid: a benzene ring carrying a sulfonate group - a water-loving acidic head on a water-hating ring, which is what a detergent is">
  <line x1="80.0" y1="36.0" x2="107.7" y2="52.0" stroke="#161A19" stroke-width="2"/>
  <line x1="107.7" y1="52.0" x2="107.7" y2="84.0" stroke="#161A19" stroke-width="2"/>
  <line x1="107.7" y1="84.0" x2="80.0" y2="100.0" stroke="#161A19" stroke-width="2"/>
  <line x1="80.0" y1="100.0" x2="52.3" y2="84.0" stroke="#161A19" stroke-width="2"/>
  <line x1="52.3" y1="84.0" x2="52.3" y2="52.0" stroke="#161A19" stroke-width="2"/>
  <line x1="52.3" y1="52.0" x2="80.0" y2="36.0" stroke="#161A19" stroke-width="2"/>
  <circle cx="80" cy="68" r="17.6" fill="none" stroke="#161A19" stroke-width="2"/>
  <circle cx="80.0" cy="36.0" r="9" fill="#2C3E50" stroke="#161A19" stroke-width="2"/>
  <text x="80.0" y="36.03" text-anchor="middle" font-family="sans-serif" font-size="9" font-weight="bold" fill="#FFFFFF">C</text>
  <circle cx="107.7" cy="52.0" r="9" fill="#2C3E50" stroke="#161A19" stroke-width="2"/>
  <text x="107.7" y="52.03" text-anchor="middle" font-family="sans-serif" font-size="9" font-weight="bold" fill="#FFFFFF">C</text>
  <circle cx="107.7" cy="84.0" r="9" fill="#2C3E50" stroke="#161A19" stroke-width="2"/>
  <text x="107.7" y="84.03" text-anchor="middle" font-family="sans-serif" font-size="9" font-weight="bold" fill="#FFFFFF">C</text>
  <circle cx="80.0" cy="100.0" r="9" fill="#2C3E50" stroke="#161A19" stroke-width="2"/>
  <text x="80.0" y="100.03" text-anchor="middle" font-family="sans-serif" font-size="9" font-weight="bold" fill="#FFFFFF">C</text>
  <circle cx="52.3" cy="84.0" r="9" fill="#2C3E50" stroke="#161A19" stroke-width="2"/>
  <text x="52.3" y="84.03" text-anchor="middle" font-family="sans-serif" font-size="9" font-weight="bold" fill="#FFFFFF">C</text>
  <circle cx="52.3" cy="52.0" r="9" fill="#2C3E50" stroke="#161A19" stroke-width="2"/>
  <text x="52.3" y="52.03" text-anchor="middle" font-family="sans-serif" font-size="9" font-weight="bold" fill="#FFFFFF">C</text>
  <line x1="80" y1="36" x2="80" y2="28" stroke="#161A19" stroke-width="2"/>
  <circle cx="80" cy="20" r="11" fill="#F1C40F" stroke="#161A19" stroke-width="2"/>
  <text x="80" y="24" text-anchor="middle" font-family="sans-serif" font-size="10" font-weight="bold" fill="#161A19">S</text>
  <line x1="70" y1="15" x2="58" y2="8" stroke="#161A19" stroke-width="2"/>
  <line x1="90" y1="15" x2="102" y2="8" stroke="#161A19" stroke-width="2"/>
  <line x1="80" y1="9" x2="80" y2="2" stroke="#161A19" stroke-width="2"/>
  <circle cx="52" cy="5" r="8" fill="#E74C3C" stroke="#161A19" stroke-width="2"/>
  <text x="52" y="8" text-anchor="middle" font-family="sans-serif" font-size="7" font-weight="bold" fill="#FFFFFF">O</text>
  <circle cx="108" cy="5" r="8" fill="#E74C3C" stroke="#161A19" stroke-width="2"/>
  <text x="108" y="8" text-anchor="middle" font-family="sans-serif" font-size="7" font-weight="bold" fill="#FFFFFF">O</text>
  <circle cx="80" cy="2" r="6" fill="#E74C3C" stroke="#161A19" stroke-width="2"/>
  <text x="80" y="4" text-anchor="middle" font-family="sans-serif" font-size="6" font-weight="bold" fill="#FFFFFF">O</text>
</svg>
