<svg width="160" height="120" viewBox="0 0 160 120" xmlns="http://www.w3.org/2000/svg" role="img" aria-label="Soda-lime glass: a silica network with some of its silicon-oxygen links broken by sodium and calcium ions. Those breaks are what lower the working temperature and let glass soften gradually instead of melting at one sharp point">
  <line x1="26" y1="30" x2="53" y2="27" stroke="#161A19" stroke-width="2"/>
  <line x1="53" y1="27" x2="80" y2="24" stroke="#161A19" stroke-width="2"/>
  <circle cx="53" cy="27" r="7" fill="#E74C3C" stroke="#161A19" stroke-width="2"/>
  <text x="53" y="30" text-anchor="middle" font-family="sans-serif" font-size="9" font-weight="bold" fill="#FFFFFF">O</text>
  <line x1="80" y1="24" x2="107" y2="29" stroke="#161A19" stroke-width="2"/>
  <line x1="107" y1="29" x2="134" y2="34" stroke="#161A19" stroke-width="2"/>
  <circle cx="107" cy="29" r="7" fill="#E74C3C" stroke="#161A19" stroke-width="2"/>
  <text x="107" y="32" text-anchor="middle" font-family="sans-serif" font-size="9" font-weight="bold" fill="#FFFFFF">O</text>
  <line x1="26" y1="30" x2="30" y2="54" stroke="#161A19" stroke-width="2"/>
  <line x1="30" y1="54" x2="34" y2="78" stroke="#161A19" stroke-width="2"/>
  <circle cx="30" cy="54" r="7" fill="#E74C3C" stroke="#161A19" stroke-width="2"/>
  <text x="30" y="57" text-anchor="middle" font-family="sans-serif" font-size="9" font-weight="bold" fill="#FFFFFF">O</text>
  <line x1="80" y1="24" x2="86" y2="54" stroke="#161A19" stroke-width="2"/>
  <line x1="86" y1="54" x2="92" y2="84" stroke="#161A19" stroke-width="2"/>
  <circle cx="86" cy="54" r="7" fill="#E74C3C" stroke="#161A19" stroke-width="2"/>
  <text x="86" y="57" text-anchor="middle" font-family="sans-serif" font-size="9" font-weight="bold" fill="#FFFFFF">O</text>
  <line x1="34" y1="78" x2="63" y2="81" stroke="#161A19" stroke-width="2"/>
  <line x1="63" y1="81" x2="92" y2="84" stroke="#161A19" stroke-width="2"/>
  <circle cx="63" cy="81" r="7" fill="#E74C3C" stroke="#161A19" stroke-width="2"/>
  <text x="63" y="84" text-anchor="middle" font-family="sans-serif" font-size="9" font-weight="bold" fill="#FFFFFF">O</text>
  <line x1="92" y1="84" x2="116" y2="80" stroke="#161A19" stroke-width="2"/>
  <line x1="116" y1="80" x2="140" y2="76" stroke="#161A19" stroke-width="2"/>
  <circle cx="116" cy="80" r="7" fill="#E74C3C" stroke="#161A19" stroke-width="2"/>
  <text x="116" y="83" text-anchor="middle" font-family="sans-serif" font-size="9" font-weight="bold" fill="#FFFFFF">O</text>
  <circle cx="26" cy="30" r="12" fill="#7A8B99" stroke="#161A19" stroke-width="2"/>
  <text x="26" y="35" text-anchor="middle" font-family="sans-serif" font-size="12" font-weight="bold" fill="#FFFFFF">Si</text>
  <circle cx="80" cy="24" r="12" fill="#7A8B99" stroke="#161A19" stroke-width="2"/>
  <text x="80" y="29" text-anchor="middle" font-family="sans-serif" font-size="12" font-weight="bold" fill="#FFFFFF">Si</text>
  <circle cx="134" cy="34" r="12" fill="#7A8B99" stroke="#161A19" stroke-width="2"/>
  <text x="134" y="39" text-anchor="middle" font-family="sans-serif" font-size="12" font-weight="bold" fill="#FFFFFF">Si</text>
  <circle cx="34" cy="78" r="12" fill="#7A8B99" stroke="#161A19" stroke-width="2"/>
  <text x="34" y="83" text-anchor="middle" font-family="sans-serif" font-size="12" font-weight="bold" fill="#FFFFFF">Si</text>
  <circle cx="92" cy="84" r="12" fill="#7A8B99" stroke="#161A19" stroke-width="2"/>
  <text x="92" y="89" text-anchor="middle" font-family="sans-serif" font-size="12" font-weight="bold" fill="#FFFFFF">Si</text>
  <circle cx="140" cy="76" r="12" fill="#7A8B99" stroke="#161A19" stroke-width="2"/>
  <text x="140" y="81" text-anchor="middle" font-family="sans-serif" font-size="12" font-weight="bold" fill="#FFFFFF">Si</text>
  <circle cx="62" cy="58" r="11" fill="#8E44AD" stroke="#161A19" stroke-width="2"/>
  <text x="62" y="62" text-anchor="middle" font-family="sans-serif" font-size="9" font-weight="bold" fill="#FFFFFF">Na</text>
  <circle cx="114" cy="58" r="11" fill="#6E8FA6" stroke="#161A19" stroke-width="2"/>
  <text x="114" y="62" text-anchor="middle" font-family="sans-serif" font-size="9" font-weight="bold" fill="#161A19">Ca</text>
  <text x="80" y="106" text-anchor="middle" font-family="sans-serif" font-size="8" font-style="italic" fill="#4A4A4A">Na and Ca ions BREAK the silica network up —</text>
  <text x="80" y="115" text-anchor="middle" font-family="sans-serif" font-size="8" font-style="italic" fill="#4A4A4A">which is why glass softens instead of melting sharply</text>
</svg>
