<svg width="160" height="120" viewBox="0 0 160 120" xmlns="http://www.w3.org/2000/svg" role="img" aria-label="Sodium hydrogensulfate: a sodium ion beside a hydrogensulfate ion, a sulfate group still holding one hydrogen">
  <line x1="28" y1="60" x2="50" y2="60" stroke="#8A8A8A" stroke-width="1.5" stroke-dasharray="3,3"/>
  <circle cx="16" cy="60" r="13" fill="#8E44AD" stroke="#161A19" stroke-width="2"/>
  <text x="16" y="65" text-anchor="middle" font-family="sans-serif" font-size="10" font-weight="bold" fill="#FFFFFF">Na</text>
  <text x="26" y="40" font-family="sans-serif" font-size="11" font-weight="bold" fill="#161A19">+</text>
  <line x1="78" y1="50" x2="64" y2="34" stroke="#161A19" stroke-width="2"/>
  <line x1="80" y1="47" x2="66" y2="31" stroke="#161A19" stroke-width="2"/>
  <line x1="96" y1="50" x2="110" y2="34" stroke="#161A19" stroke-width="2"/>
  <line x1="94" y1="47" x2="108" y2="31" stroke="#161A19" stroke-width="2"/>
  <line x1="80" y1="70" x2="66" y2="86" stroke="#161A19" stroke-width="2"/>
  <line x1="94" y1="70" x2="108" y2="86" stroke="#161A19" stroke-width="2"/>
  <line x1="114" y1="92" x2="128" y2="102" stroke="#161A19" stroke-width="2"/>
  <circle cx="87" cy="60" r="16" fill="#F1C40F" stroke="#161A19" stroke-width="2"/>
  <text x="87" y="66" text-anchor="middle" font-family="sans-serif" font-size="14" font-weight="bold" fill="#161A19">S</text>
  <circle cx="58" cy="26" r="12" fill="#E74C3C" stroke="#161A19" stroke-width="2"/>
  <text x="58" y="31" text-anchor="middle" font-family="sans-serif" font-size="11" font-weight="bold" fill="#FFFFFF">O</text>
  <circle cx="116" cy="26" r="12" fill="#E74C3C" stroke="#161A19" stroke-width="2"/>
  <text x="116" y="31" text-anchor="middle" font-family="sans-serif" font-size="11" font-weight="bold" fill="#FFFFFF">O</text>
  <circle cx="60" cy="92" r="12" fill="#E74C3C" stroke="#161A19" stroke-width="2"/>
  <text x="60" y="97" text-anchor="middle" font-family="sans-serif" font-size="11" font-weight="bold" fill="#FFFFFF">O</text>
  <text x="44" y="96" font-family="sans-serif" font-size="11" font-weight="bold" fill="#161A19">-</text>
  <circle cx="114" cy="92" r="12" fill="#E74C3C" stroke="#161A19" stroke-width="2"/>
  <text x="114" y="97" text-anchor="middle" font-family="sans-serif" font-size="11" font-weight="bold" fill="#FFFFFF">O</text>
  <circle cx="134" cy="108" r="9" fill="#F5F5F0" stroke="#161A19" stroke-width="2"/>
  <text x="134" y="111" text-anchor="middle" font-family="sans-serif" font-size="9" font-weight="bold" fill="#161A19">H</text>
</svg>
