<svg width="160" height="120" viewBox="0 0 160 120" xmlns="http://www.w3.org/2000/svg" role="img" aria-label="Tin: a metal, drawn as a small block of its lattice. Used with hydrochloric acid it gives up four electrons and those electrons are what reduce a nitro group to an amine">
  <line x1="42" y1="42" x2="80" y2="42" stroke="#8A8A8A" stroke-width="1.5" stroke-dasharray="3,3"/>
  <line x1="42" y1="42" x2="42" y2="78" stroke="#8A8A8A" stroke-width="1.5" stroke-dasharray="3,3"/>
  <line x1="80" y1="42" x2="118" y2="42" stroke="#8A8A8A" stroke-width="1.5" stroke-dasharray="3,3"/>
  <line x1="80" y1="42" x2="80" y2="78" stroke="#8A8A8A" stroke-width="1.5" stroke-dasharray="3,3"/>
  <line x1="118" y1="42" x2="118" y2="78" stroke="#8A8A8A" stroke-width="1.5" stroke-dasharray="3,3"/>
  <line x1="42" y1="78" x2="80" y2="78" stroke="#8A8A8A" stroke-width="1.5" stroke-dasharray="3,3"/>
  <line x1="80" y1="78" x2="118" y2="78" stroke="#8A8A8A" stroke-width="1.5" stroke-dasharray="3,3"/>
  <circle cx="42" cy="42" r="15" fill="#8C9BA5" stroke="#161A19" stroke-width="2"/>
  <text x="42" y="48" text-anchor="middle" font-family="sans-serif" font-size="11" font-weight="bold" fill="#161A19">Sn</text>
  <circle cx="80" cy="42" r="15" fill="#8C9BA5" stroke="#161A19" stroke-width="2"/>
  <text x="80" y="48" text-anchor="middle" font-family="sans-serif" font-size="11" font-weight="bold" fill="#161A19">Sn</text>
  <circle cx="118" cy="42" r="15" fill="#8C9BA5" stroke="#161A19" stroke-width="2"/>
  <text x="118" y="48" text-anchor="middle" font-family="sans-serif" font-size="11" font-weight="bold" fill="#161A19">Sn</text>
  <circle cx="42" cy="78" r="15" fill="#8C9BA5" stroke="#161A19" stroke-width="2"/>
  <text x="42" y="84" text-anchor="middle" font-family="sans-serif" font-size="11" font-weight="bold" fill="#161A19">Sn</text>
  <circle cx="80" cy="78" r="15" fill="#8C9BA5" stroke="#161A19" stroke-width="2"/>
  <text x="80" y="84" text-anchor="middle" font-family="sans-serif" font-size="11" font-weight="bold" fill="#161A19">Sn</text>
  <circle cx="118" cy="78" r="15" fill="#8C9BA5" stroke="#161A19" stroke-width="2"/>
  <text x="118" y="84" text-anchor="middle" font-family="sans-serif" font-size="11" font-weight="bold" fill="#161A19">Sn</text>
  <text x="80" y="106" text-anchor="middle" font-family="sans-serif" font-size="8" font-style="italic" fill="#4A4A4A">gives up 4 electrons: Sn → Sn⁴⁺</text>
</svg>
